<svg width="24" height="24" viewBox="0 0 24 24" fill="none" xmlns="http://www.w3.org/2000/svg">
<path d="M6 4.125H18V20.625H6V4.125Z" fill="#E6E7E8"/>
<path d="M3.75 4.125C1.26488 4.125 0 5.97188 0 8.25V16.5C0 18.7781 1.26488 20.625 3.75 20.625H6V4.125H3.75Z" fill="#EC1C24"/>
<path d="M20.25 4.125H18V20.625H20.25C22.7351 20.625 24 18.7781 24 16.5V8.25C24 5.97188 22.7351 4.125 20.25 4.125Z" fill="#EC1C24"/>
<path fill-rule="evenodd" clip-rule="evenodd" d="M16.5975 12.2404C16.4261 12.1628 16.3972 12.108 16.4482 11.9186C16.5754 11.445 16.7062 10.9733 16.8349 10.5004C16.8457 10.4618 16.8555 10.422 16.8701 10.3654C16.7111 10.3973 16.5626 10.4258 16.4141 10.458C16.1137 10.5218 15.8152 10.5866 15.5156 10.65C15.3199 10.6909 15.2302 10.6361 15.1747 10.4426C15.1226 10.2596 15.0712 10.0763 14.9876 9.867C14.9685 9.8985 14.9546 9.93488 14.9302 9.9615C14.5871 10.3489 14.2421 10.7351 13.8967 11.1225C13.7899 11.2403 13.671 11.2916 13.587 11.2451C13.4636 11.1754 13.4681 11.052 13.4884 10.9369C13.5795 10.434 13.674 9.93225 13.7677 9.42938C13.8364 9.0645 13.905 8.7015 13.9755 8.32125C13.9399 8.33475 13.9159 8.3415 13.8945 8.352C13.7002 8.4525 13.5082 8.55488 13.3136 8.65313C13.0751 8.77275 12.9551 8.73338 12.8306 8.50275C12.567 8.01413 12.3056 7.52475 12.0427 7.03575C12.0292 7.01175 12.0202 6.98775 11.9996 6.957L11.9565 7.03575C11.6944 7.52475 11.4326 8.01413 11.1694 8.50275C11.0445 8.73338 10.9241 8.77313 10.6856 8.65313C10.491 8.55488 10.299 8.4525 10.1047 8.352C10.0834 8.3415 10.0594 8.33475 10.0237 8.32125C10.0942 8.7015 10.1629 9.0645 10.2315 9.42938C10.3252 9.93075 10.4201 10.4325 10.5105 10.9369C10.5315 11.0524 10.5356 11.1758 10.4122 11.2451C10.3279 11.2916 10.2094 11.2403 10.1029 11.1225C9.75711 10.7351 9.41211 10.3489 9.06899 9.9615C9.04461 9.93488 9.03036 9.8985 9.01161 9.867C8.92799 10.0766 8.87661 10.2596 8.82449 10.4426C8.76899 10.6361 8.67861 10.6909 8.48361 10.65C8.18399 10.5866 7.88511 10.5218 7.58511 10.458C7.43661 10.4258 7.28811 10.3973 7.12911 10.3654C7.14374 10.422 7.15311 10.4621 7.16436 10.5004C7.29299 10.9733 7.42386 11.4454 7.55099 11.9186C7.60199 12.1084 7.57311 12.1628 7.40174 12.2404C7.24311 12.3124 7.08486 12.3885 6.91724 12.4669C6.94724 12.4939 6.96411 12.51 6.98286 12.5254C7.38186 12.8501 7.78086 13.1738 8.18061 13.4985C8.56724 13.8128 8.95236 14.1266 9.33936 14.4398C9.47474 14.5489 9.51936 14.6816 9.46349 14.8474C9.43199 14.9449 9.40386 15.0424 9.37461 15.1403C9.33936 15.2554 9.30486 15.3713 9.26586 15.5029C9.64949 15.4485 10.0117 15.3979 10.3766 15.3473C10.8045 15.2884 11.232 15.228 11.661 15.174C11.808 15.1549 11.9171 15.267 11.9111 15.4129C11.8789 16.1865 11.8042 17.0599 11.799 17.7926H12.2002C12.195 17.0599 12.1207 16.1869 12.0885 15.4129C12.0817 15.267 12.1912 15.1549 12.3382 15.174C12.7672 15.228 13.1947 15.2884 13.6226 15.3473C13.9875 15.3979 14.3497 15.4489 14.7334 15.5029C14.6944 15.3713 14.6599 15.2554 14.6246 15.1403C14.5954 15.042 14.5672 14.9449 14.5357 14.8474C14.4799 14.6816 14.5245 14.5489 14.6599 14.4398C15.0472 14.1266 15.432 13.8128 15.8186 13.4985C16.2184 13.1741 16.6174 12.8501 17.0164 12.5254C17.0351 12.51 17.052 12.4939 17.082 12.4669C16.914 12.3881 16.7565 12.3124 16.5975 12.2404" fill="#EC1C24"/>
</svg>
