<svg height="100%" xmlns="http://www.w3.org/2000/svg" xmlns:xlink="http://www.w3.org/1999/xlink" id="feb9em5nhobu41" viewBox="0 0 500 500" shape-rendering="geometricPrecision" text-rendering="geometricPrecision"><g id="feb9em5nhobu42" transform="matrix(9.70400190635265 0 0 9.70400190635265 14.73059837000000 49.22432030500001)"><path id="feb9em5nhobu43" d="M18.573900,20.128500C18.594900,23.515800,20.992200,26.242100,23.928300,26.217800C26.864400,26.193500,29.227500,23.427800,29.206500,20.040500C29.185400,16.653200,26.788100,13.926900,23.852000,13.951200C20.915900,13.975500,18.552800,16.741200,18.573900,20.128500Z" transform="matrix(1 0 0 1 0.00000021022255 -3.50000008993874)" fill="none" stroke="rgb(176,176,176)" stroke-width="1" stroke-linecap="round" stroke-linejoin="round"/><path id="feb9em5nhobu44" d="M17.244600,27.751200L20.135400,24.416200" transform="matrix(1 0 0 1 0.00000021022255 -3.50000008993874)" fill="none" stroke="rgb(176,176,176)" stroke-width="1" stroke-linecap="round" stroke-linejoin="round"/><path id="feb9em5nhobu45" d="M1.888810,29.729100C0.703731,28.764800,0.703731,26.737300,1.888800,25.773000L23.035100,8.564800C23.760300,7.974580,24.728800,7.974580,25.454000,8.564800L46.600400,25.773000C47.785400,26.737300,47.785400,28.764800,46.600400,29.729100L25.454000,46.937400C24.728800,47.527500,23.760300,47.527500,23.035100,46.937400L1.888810,29.729100Z" transform="matrix(1 0 0 1 0.00000021022255 -3.50000008993874)" fill="none" fill-opacity="1" stroke="rgb(176,176,176)" stroke-width="1" stroke-opacity="1"/><path id="feb9em5nhobu46" d="M1.888810,22.607000C0.703731,21.642600,0.703731,19.615200,1.888800,18.650800L23.035100,1.442580C23.760300,0.852474,24.728800,0.852474,25.454000,1.442580L46.600400,18.650800C47.785400,19.615200,47.785400,21.642600,46.600400,22.607000L25.454000,39.815200C24.728800,40.405300,23.760300,40.405300,23.035100,39.815200L1.888810,22.607000Z" transform="matrix(1 0 0 1 0.00000021022255 -3.50000008993874)" fill="none" stroke="rgb(176,176,176)" stroke-width="1"/><path id="feb9em5nhobu47" d="M31.899400,24.935500L24.397500,21.366100L25.045400,30.698100L26.781900,27.326500L29.410800,31.488200C29.773900,32.063000,30.471700,32.189300,30.969900,31.770400C31.468100,31.351600,31.577500,30.546500,31.214500,29.971800L28.585500,25.810000L31.899400,24.935500Z" transform="matrix(1 0 0 1 0.58000000000000 -2.44000000000000)" fill="rgb(30,150,252)" stroke="rgb(176,176,176)" stroke-width="0.500000" stroke-linecap="square" stroke-miterlimit="10"/><path id="feb9em5nhobu48" d="M23.651400,19.693000C23.508700,19.760500,23.345500,19.681900,23.287000,19.517200L22.968900,18.623000C22.910300,18.458400,22.978500,18.270100,23.121200,18.202600C23.263900,18.135000,23.427100,18.213700,23.485600,18.378300L23.803700,19.272600C23.862300,19.437200,23.794100,19.625400,23.651400,19.693000Z" transform="matrix(1 0 0 1 0.00000021022255 -3.50000008993874)" fill="rgb(30,150,252)" fill-opacity="0.650000" stroke="rgb(30,150,252)" stroke-width="0"/><path id="feb9em5nhobu49" d="M25.361400,19.699500C25.295300,19.730800,25.218900,19.732900,25.147700,19.698600C25.005400,19.630000,24.938300,19.441300,24.997800,19.277100L25.321000,18.385200C25.380500,18.220900,25.544000,18.143500,25.686300,18.212200C25.828700,18.280800,25.895800,18.469500,25.836300,18.633700L25.513100,19.525600C25.483300,19.607800,25.427600,19.668200,25.361400,19.699500Z" transform="matrix(1 0 0 1 0.00000021022255 -3.50000008993874)" opacity="0.6" fill="rgb(30,150,252)" fill-opacity="1" stroke="rgb(0,0,0)" stroke-width="0" stroke-opacity="0"/><path id="feb9em5nhobu410" d="M22.438300,21.083400C22.372200,21.114700,22.295700,21.116900,22.224500,21.082600L21.451400,20.709700C21.309100,20.641000,21.242000,20.452400,21.301500,20.288200C21.361000,20.124000,21.524500,20.046600,21.666800,20.115200L22.440000,20.488100C22.582300,20.556700,22.649400,20.745400,22.589900,20.909600C22.560100,20.991700,22.504400,21.052100,22.438300,21.083400Z" transform="matrix(1 0 0 1 0.00000021022255 -3.50000008993874)" fill="rgb(30,150,252)" fill-opacity="0.650000" stroke="rgb(0,0,0)" stroke-width="0"/></g></svg>