<svg width="655" height="100%" viewBox="0 0 655 67" fill="none" xmlns="http://www.w3.org/2000/svg">
<path d="M19.7582 66.4419C15.9875 66.4419 12.3641 65.9116 8.88802 64.8511C5.47085 63.7317 2.79013 62.3472 0.845881 60.6975L3.67389 55.7485C5.61814 57.2803 8.06319 58.547 11.009 59.5486C13.9549 60.4913 17.0185 60.9626 20.2 60.9626C24.4421 60.9626 27.5646 60.3145 29.5678 59.0184C31.6299 57.6633 32.6609 55.7779 32.6609 53.3623C32.6609 51.6538 32.1012 50.3281 30.9818 49.3855C29.8624 48.3839 28.4484 47.6474 26.7398 47.1761C25.0312 46.6458 22.7629 46.145 19.9349 45.6737C16.1642 44.9667 13.13 44.2597 10.8323 43.5527C8.53452 42.7868 6.56081 41.5201 4.91114 39.7526C3.32039 37.9851 2.52501 35.54 2.52501 32.4174C2.52501 28.5289 4.14522 25.3474 7.38564 22.8729C10.6261 20.3984 15.1332 19.1612 20.907 19.1612C23.9118 19.1612 26.9166 19.5736 29.9213 20.3984C32.9261 21.1643 35.4006 22.1954 37.3448 23.4915L34.6052 28.5289C30.7756 25.8777 26.2096 24.552 20.907 24.552C16.9007 24.552 13.8665 25.259 11.8044 26.673C9.80123 28.087 8.79965 29.9429 8.79965 32.2407C8.79965 34.0082 9.35936 35.4222 10.4788 36.4827C11.6571 37.5432 13.1006 38.3386 14.8092 38.8688C16.5177 39.3402 18.8744 39.8409 21.8792 40.3712C25.5909 41.0782 28.5662 41.7852 30.8051 42.4922C33.0439 43.1992 34.9587 44.407 36.5495 46.1156C38.1402 47.8242 38.9356 50.1808 38.9356 53.1856C38.9356 57.2509 37.227 60.4913 33.8098 62.9069C30.4516 65.2635 25.7677 66.4419 19.7582 66.4419ZM71.4804 63.172C70.3021 64.2325 68.8292 65.0573 67.0617 65.6465C65.3531 66.1768 63.5561 66.4419 61.6708 66.4419C57.3109 66.4419 53.9527 65.2635 51.596 62.9069C49.2393 60.5502 48.061 57.2214 48.061 52.9205V24.8172H39.7537V19.5147H48.061V9.35151H54.3356V19.5147H68.4757V24.8172H54.3356V52.567C54.3356 55.3361 55.0132 57.4571 56.3683 58.93C57.7823 60.344 59.7855 61.051 62.3778 61.051C63.674 61.051 64.9112 60.8448 66.0895 60.4324C67.3268 60.0199 68.3873 59.4308 69.2711 58.6649L71.4804 63.172ZM118.204 44.7016H79.3189C79.6724 49.5328 81.5283 53.4507 84.8865 56.4555C88.2448 59.4013 92.4868 60.8742 97.6126 60.8742C100.499 60.8742 103.151 60.3734 105.566 59.3719C107.982 58.3114 110.073 56.7795 111.841 54.7764L115.376 58.8416C113.314 61.3161 110.722 63.2015 107.599 64.4976C104.535 65.7938 101.148 66.4419 97.4358 66.4419C92.6636 66.4419 88.4215 65.4403 84.7098 63.4371C81.0569 61.375 78.1995 58.547 76.1374 54.9531C74.0753 51.3592 73.0443 47.2939 73.0443 42.7573C73.0443 38.2207 74.0164 34.1555 75.9606 30.5616C77.9638 26.9676 80.674 24.1691 84.0912 22.1659C87.5672 20.1627 91.4558 19.1612 95.7567 19.1612C100.058 19.1612 103.917 20.1627 107.334 22.1659C110.751 24.1691 113.432 26.9676 115.376 30.5616C117.32 34.0966 118.292 38.1618 118.292 42.7573L118.204 44.7016ZM95.7567 24.552C91.279 24.552 87.5083 25.9955 84.4447 28.8824C81.4399 31.7104 79.7313 35.4222 79.3189 40.0177H112.283C111.87 35.4222 110.132 31.7104 107.069 28.8824C104.064 25.9955 100.293 24.552 95.7567 24.552ZM165.728 19.5147L145.048 66H138.597L118.005 19.5147H124.545L141.955 59.1067L159.541 19.5147H165.728ZM210.211 44.7016H171.326C171.679 49.5328 173.535 53.4507 176.893 56.4555C180.252 59.4013 184.494 60.8742 189.619 60.8742C192.506 60.8742 195.158 60.3734 197.573 59.3719C199.989 58.3114 202.08 56.7795 203.848 54.7764L207.383 58.8416C205.321 61.3161 202.728 63.2015 199.606 64.4976C196.542 65.7938 193.154 66.4419 189.443 66.4419C184.67 66.4419 180.428 65.4403 176.717 63.4371C173.064 61.375 170.206 58.547 168.144 54.9531C166.082 51.3592 165.051 47.2939 165.051 42.7573C165.051 38.2207 166.023 34.1555 167.967 30.5616C169.971 26.9676 172.681 24.1691 176.098 22.1659C179.574 20.1627 183.463 19.1612 187.764 19.1612C192.064 19.1612 195.923 20.1627 199.341 22.1659C202.758 24.1691 205.439 26.9676 207.383 30.5616C209.327 34.0966 210.299 38.1618 210.299 42.7573L210.211 44.7016ZM187.764 24.552C183.286 24.552 179.515 25.9955 176.451 28.8824C173.447 31.7104 171.738 35.4222 171.326 40.0177H204.29C203.877 35.4222 202.139 31.7104 199.076 28.8824C196.071 25.9955 192.3 24.552 187.764 24.552ZM243.22 19.1612C249.053 19.1612 253.678 20.8697 257.095 24.2869C260.571 27.6452 262.309 32.5647 262.309 39.0456V66H256.035V39.6642C256.035 34.833 254.827 31.1507 252.411 28.6173C249.996 26.0839 246.549 24.8172 242.071 24.8172C237.064 24.8172 233.087 26.3195 230.141 29.3243C227.254 32.2701 225.81 36.3649 225.81 41.6084V66H219.536V19.5147H225.545V28.087C227.254 25.259 229.611 23.0791 232.615 21.5473C235.679 19.9565 239.214 19.1612 243.22 19.1612Z" fill="#B0B0B0"/>
<path d="M314.758 66.5303C310.104 66.5303 305.92 65.4992 302.209 63.4371C298.497 61.375 295.581 58.547 293.46 54.9531C291.397 51.3003 290.366 47.1761 290.366 42.5806C290.366 37.9851 291.397 33.8904 293.46 30.2964C295.581 26.6436 298.497 23.8156 302.209 21.8124C305.92 19.7503 310.104 18.7193 314.758 18.7193C319.412 18.7193 323.566 19.7503 327.219 21.8124C330.931 23.8156 333.818 26.6436 335.88 30.2964C338.001 33.8904 339.061 37.9851 339.061 42.5806C339.061 47.1761 338.001 51.3003 335.88 54.9531C333.818 58.547 330.931 61.375 327.219 63.4371C323.566 65.4992 319.412 66.5303 314.758 66.5303ZM314.758 59.1067C317.763 59.1067 320.443 58.4292 322.8 57.0741C325.216 55.6601 327.101 53.7159 328.456 51.2413C329.811 48.7079 330.489 45.821 330.489 42.5806C330.489 39.3402 329.811 36.4827 328.456 34.0082C327.101 31.4748 325.216 29.5305 322.8 28.1754C320.443 26.8203 317.763 26.1428 314.758 26.1428C311.753 26.1428 309.043 26.8203 306.627 28.1754C304.271 29.5305 302.385 31.4748 300.971 34.0082C299.616 36.4827 298.939 39.3402 298.939 42.5806C298.939 45.821 299.616 48.7079 300.971 51.2413C302.385 53.7159 304.271 55.6601 306.627 57.0741C309.043 58.4292 311.753 59.1067 314.758 59.1067ZM355.39 27.0265C356.863 24.3164 359.043 22.2543 361.93 20.8403C364.817 19.4263 368.322 18.7193 372.446 18.7193V26.9382C371.975 26.8793 371.327 26.8498 370.502 26.8498C365.906 26.8498 362.283 28.2343 359.632 31.0034C357.039 33.7136 355.743 37.6021 355.743 42.669V66H347.259V19.1612H355.39V27.0265ZM421.268 42.8457C421.268 43.4938 421.209 44.3481 421.091 45.4086H383.09C383.62 49.5328 385.417 52.8616 388.481 55.395C391.603 57.8695 395.462 59.1067 400.058 59.1067C405.655 59.1067 410.162 57.2214 413.579 53.4507L418.263 58.93C416.142 61.4045 413.491 63.2898 410.309 64.586C407.187 65.8822 403.681 66.5303 399.793 66.5303C394.844 66.5303 390.455 65.5287 386.625 63.5255C382.795 61.4634 379.82 58.6059 377.699 54.9531C375.637 51.3003 374.606 47.1761 374.606 42.5806C374.606 38.044 375.607 33.9493 377.611 30.2964C379.673 26.6436 382.471 23.8156 386.006 21.8124C389.6 19.7503 393.636 18.7193 398.114 18.7193C402.591 18.7193 406.568 19.7503 410.044 21.8124C413.579 23.8156 416.319 26.6436 418.263 30.2964C420.266 33.9493 421.268 38.1324 421.268 42.8457ZM398.114 25.8777C394.048 25.8777 390.631 27.1149 387.862 29.5894C385.152 32.0639 383.561 35.3044 383.09 39.3107H413.137C412.666 35.3633 411.046 32.1523 408.277 29.6778C405.567 27.1444 402.179 25.8777 398.114 25.8777ZM449.928 66.5303C445.156 66.5303 440.885 65.4992 437.114 63.4371C433.402 61.375 430.486 58.547 428.365 54.9531C426.244 51.3003 425.183 47.1761 425.183 42.5806C425.183 37.9851 426.244 33.8904 428.365 30.2964C430.486 26.6436 433.402 23.8156 437.114 21.8124C440.885 19.7503 445.156 18.7193 449.928 18.7193C454.17 18.7193 457.941 19.5736 461.241 21.2822C464.599 22.9907 467.191 25.4653 469.018 28.7057L462.566 32.8593C461.093 30.6205 459.267 28.9413 457.087 27.8219C454.907 26.7025 452.491 26.1428 449.84 26.1428C446.776 26.1428 444.007 26.8203 441.533 28.1754C439.117 29.5305 437.202 31.4748 435.788 34.0082C434.433 36.4827 433.756 39.3402 433.756 42.5806C433.756 45.8799 434.433 48.7963 435.788 51.3297C437.202 53.8042 439.117 55.719 441.533 57.0741C444.007 58.4292 446.776 59.1067 449.84 59.1067C452.491 59.1067 454.907 58.547 457.087 57.4276C459.267 56.3082 461.093 54.6291 462.566 52.3902L469.018 56.4555C467.191 59.6959 464.599 62.1999 461.241 63.9674C457.941 65.676 454.17 66.5303 449.928 66.5303ZM500.873 18.7193C506.823 18.7193 511.537 20.4573 515.013 23.9334C518.548 27.3506 520.315 32.388 520.315 39.0456V66H511.831V40.0177C511.831 35.4811 510.741 32.0639 508.561 29.7662C506.381 27.4684 503.259 26.3195 499.194 26.3195C494.598 26.3195 490.975 27.6746 488.323 30.3848C485.672 33.0361 484.346 36.8656 484.346 41.8736V66H475.862V0.425616H484.346V25.7893C486.114 23.5505 488.412 21.8124 491.24 20.5752C494.127 19.3379 497.338 18.7193 500.873 18.7193ZM552.801 66.5303C548.147 66.5303 543.964 65.4992 540.252 63.4371C536.54 61.375 533.624 58.547 531.503 54.9531C529.441 51.3003 528.41 47.1761 528.41 42.5806C528.41 37.9851 529.441 33.8904 531.503 30.2964C533.624 26.6436 536.54 23.8156 540.252 21.8124C543.964 19.7503 548.147 18.7193 552.801 18.7193C557.456 18.7193 561.609 19.7503 565.262 21.8124C568.974 23.8156 571.861 26.6436 573.923 30.2964C576.044 33.8904 577.104 37.9851 577.104 42.5806C577.104 47.1761 576.044 51.3003 573.923 54.9531C571.861 58.547 568.974 61.375 565.262 63.4371C561.609 65.4992 557.456 66.5303 552.801 66.5303ZM552.801 59.1067C555.806 59.1067 558.487 58.4292 560.843 57.0741C563.259 55.6601 565.144 53.7159 566.499 51.2413C567.855 48.7079 568.532 45.821 568.532 42.5806C568.532 39.3402 567.855 36.4827 566.499 34.0082C565.144 31.4748 563.259 29.5305 560.843 28.1754C558.487 26.8203 555.806 26.1428 552.801 26.1428C549.797 26.1428 547.086 26.8203 544.671 28.1754C542.314 29.5305 540.429 31.4748 539.015 34.0082C537.66 36.4827 536.982 39.3402 536.982 42.5806C536.982 45.821 537.66 48.7079 539.015 51.2413C540.429 53.7159 542.314 55.6601 544.671 57.0741C547.086 58.4292 549.797 59.1067 552.801 59.1067ZM654.885 19.1612L637.387 66H629.256L615.735 30.4732L602.037 66H593.906L576.496 19.1612H584.538L598.148 56.4555L612.288 19.1612H619.447L633.321 56.6322L647.285 19.1612H654.885Z" fill="#1E96FC"/>
</svg>
