<svg xmlns="http://www.w3.org/2000/svg" width="24" height="100%" viewBox="0 0 24 24" fill="none"><rect width="24" height="24" fill="none" rx="0" ry="0"/><path fill-rule="evenodd" clip-rule="evenodd" d="M2.5 5H9H21.5V10V19H15H2.5V15V5Z" fill="#f7fafc"/><path fill-rule="evenodd" clip-rule="evenodd" d="M2 4.94634C2 4.42369 2.42369 4 2.94634 4H21.0537C21.5763 4 22 4.42369 22 4.94634C22 5.61703 21.7153 6.2562 21.2168 6.70486L15.3448 11.9897C13.4433 13.701 10.5567 13.701 8.65518 11.9897L2.78318 6.70486C2.28466 6.2562 2 5.61703 2 4.94634Z" fill="#7DE9DA" fill-opacity="0.3"/><path fill-rule="evenodd" clip-rule="evenodd" d="M2 5C2 4.44772 2.44772 4 3 4H21C21.5523 4 22 4.44772 22 5V5.56951C22 5.84431 21.8869 6.10701 21.6873 6.29588L15.4365 12.2104C13.5086 14.0346 10.4914 14.0346 8.5635 12.2104L2.3127 6.29588C2.11309 6.10701 2 5.84431 2 5.56951V5ZM3.2 9.54044C3.16939 9.23692 2.91313 9 2.60153 9C2.26932 9 2 9.26931 2 9.60153V18C2 19.1046 2.89543 20 4 20H20C21.1046 20 22 19.1046 22 18V14.6C22 14.2686 21.7314 14 21.4 14C21.0687 14 20.8 14.2686 20.8 14.6V15H20.8V17.8C20.8 18.3523 20.3523 18.8 19.8 18.8H4.2C3.64772 18.8 3.2 18.3523 3.2 17.8V9.54044ZM20.8 12H20.8V12.4C20.8 12.7314 21.0687 13 21.4 13C21.7314 13 22 12.7314 22 12.4V8.59998C22 8.26862 21.7314 8 21.4 8C21.0687 8 20.8 8.26862 20.8 8.59998V11H20.8V12ZM16.1559 13.9817C15.9601 13.7103 16.0243 13.3313 16.2984 13.1393C16.5671 12.9512 16.9371 13.0137 17.1291 13.2798L19.8761 17.0885C20.0718 17.3599 20.0077 17.739 19.7336 17.9309C19.4649 18.1191 19.0948 18.0565 18.9029 17.7904L16.1559 13.9817ZM7.6336 13.1845C7.9077 13.3765 7.97181 13.7555 7.77607 14.0269L5.02906 17.8356C4.83715 18.1017 4.4671 18.1643 4.19836 17.9761C3.92426 17.7842 3.86015 17.4051 4.05589 17.1337L6.8029 13.325C6.99481 13.059 7.36486 12.9964 7.6336 13.1845ZM3.68468 5.25041C3.50624 5.25041 3.41713 5.46637 3.54364 5.59221L9.17918 11.1976C10.7395 12.7495 13.2605 12.7495 14.8208 11.1975L20.4564 5.59221C20.5829 5.46637 20.4938 5.25041 20.3153 5.25041H3.68468Z" fill="#7a7a7a"/></svg>