<svg width="350" height="100%" viewBox="0 0 350 350" fill="none" xmlns="http://www.w3.org/2000/svg">
<path fill-rule="evenodd" clip-rule="evenodd" d="M323.236 273.739C336.904 287.407 336.904 309.568 323.236 323.236C309.568 336.904 287.407 336.904 273.739 323.236L174.744 224.241L75.7489 323.236C62.0803 336.904 39.9196 336.904 26.2513 323.236C12.5829 309.568 12.5829 287.407 26.2513 273.739L125.246 174.744L26.2513 75.7489C12.5829 62.0803 12.5829 39.9196 26.2513 26.2513C39.9196 12.5829 62.0803 12.5829 75.7489 26.2513L174.744 125.246L273.739 26.2513C287.407 12.5829 309.568 12.5829 323.236 26.2513C336.904 39.9196 336.904 62.0803 323.236 75.7489L224.241 174.744L323.236 273.739Z" fill="#B0B0B0"/>
</svg>
