<svg width="350" height="100%" viewBox="0 0 350 350" fill="none" xmlns="http://www.w3.org/2000/svg">
<path d="M306.25 105.5H43.75C38.92 105.5 35 101.468 35 96.5C35 91.532 38.92 87.5 43.75 87.5H306.25C311.08 87.5 315 91.532 315 96.5C315 101.468 311.08 105.5 306.25 105.5Z" fill="#B0B0B0"/>
<path d="M306.25 193H43.75C38.92 193 35 188.968 35 184C35 179.032 38.92 175 43.75 175H306.25C311.08 175 315 179.032 315 184C315 188.968 311.08 193 306.25 193Z" fill="#1E96FC"/>
<path d="M306.25 280.5H43.75C38.92 280.5 35 276.468 35 271.5C35 266.532 38.92 262.5 43.75 262.5H306.25C311.08 262.5 315 266.532 315 271.5C315 276.468 311.08 280.5 306.25 280.5Z" fill="#B0B0B0"/>
</svg>
